<?xml version="1.0" encoding="UTF-8"?>
<svg version="1.1" viewBox="0 0 2048 2048" width="4000" height="4000" xmlns="http://www.w3.org/2000/svg">
<path transform="translate(84,1054)" d="m0 0h283l10 4 9 7 6 9 3 9v110l-2 19-3 9-4 4-14 3-12 1h-41l-18-2-8-3-4-6-2-10-1-12-1-76-2-9-5-5-10-2h-138l-11 2-4 4-2 6-1 15v258l1 15 3 8 6 3 7 1h194l10-2 4-1 3-11v-96l3-10 7-8 9-4 5-1h8l11 3 8 7 3 6 1 4v136l-4 13-8 9-9 4-4 1h-289l-11-4-6-5-6-12-1-5v-358l4-10 6-8 9-7z"/>
<path transform="translate(87,520)" d="m0 0h178l10 3 9 6 7 8 4 9 1 5 1 129 2 9 2 4 7 3 20 2 8 4 5 8 2 8v198l-3 7-5 6-12 6h-17l-10-5-6-8-1-4-1-148-2-15-5-5-4-1-15-1h-68l-15 1-9 3-3 8-1 9-1 138-3 10-6 8-10 6-8 2h-54l-13-4-8-7-4-8-2-8v-357l4-11 9-10 9-6zm40 50-9 2-5 5-2 9v96l2 9 5 5 8 2h99l10-2 4-4 2-9v-98l-2-9-5-4-9-2z"/>
<path transform="translate(683,521)" d="m0 0h13l8 4 5 5 3 7 1 100 1 15 3 9 7 3 7 1 141 1 10 3 8 6 6 7 3 7 1 5v212l-3 10-5 8-9 6-11 3h-179l-11-3-6-4-6-7-4-11v-369l3-8 4-5zm89 189-9 3-3 7-1 7v143l2 12 5 5 7 2h64l9-2 5-5 2-10v-147l-2-9-4-4-8-2z"/>
<path transform="translate(938,1054)" d="m0 0h8l9 3 6 5 4 9 1 100 1 15 3 8 5 3 4 1 17 1h125l10 2 8 4 7 6 6 12 1 5v211l-4 13-8 9-9 4-4 1h-185l-11-4-7-6-5-10-1-4v-370l4-9 8-7zm92 189-12 2-4 5-2 10v145l2 10 2 4 7 3 9 1h52l14-2 5-4 2-5 1-7v-145l-2-10-5-5-11-2z"/>
<path transform="translate(1808,666)" d="m0 0h157l10 3 8 6 6 7 3 8 1 6v44l-3 9-5 6-8 4h-15l-8-4-6-7-3-10-1-17-2-8-7-2h-96l-7 3-3 8v43l3 7 9 3 124 1 9 2 10 6 6 9 3 12v99l-3 12-6 9-10 6-9 2h-157l-13-4-9-8-4-9-1-5v-48l3-7 5-6 8-4 4-1h7l9 3 7 6 3 7 1 5 1 16 3 7 7 3h48l8-3 3-9v-43l-3-8-5-3-4-1-76-1-10-2-8-4-7-8-3-7-1-5v-102l4-11 7-8 6-4z"/>
<path transform="translate(956,666)" d="m0 0h214l13 4 7 6 5 10 2 11v205l-3 14-6 9-10 6-9 2h-213l-13-4-7-5-5-8-3-13v-206l2-10 5-10 9-7 7-3zm31 44-7 3-3 3-2 9v149l2 9 3 4 7 2h150l8-3 3-4 2-9v-147l-2-10-5-5-4-1z"/>
<path transform="translate(399,666)" d="m0 0h214l10 3 9 6 5 8 2 7v219l-3 9-5 7-10 6-9 2h-213l-11-3-9-6-5-8-2-6-1-7v-207l3-12 6-9 9-6zm31 44-7 3-3 3-2 9v150l3 10 5 3 4 1h150l8-3 3-4 2-10v-145l-2-11-5-5-4-1z"/>
<path transform="translate(445,1054)" d="m0 0h9l10 3 8 6 4 8 1 127 1 34 2 9 6 9 9 10 27 27 6 10 2 13 1 84 2 14 3 5 5 2 6 1 89 1 8 3 5 5 4 6 1 3v15l-5 10-8 6-4 1h-191l-11-4-5-4-6-10-2-8v-366l3-8 4-5 8-5z"/>
<path transform="translate(697,1199)" d="m0 0 11 1 8 5 4 5 2 4 1 6 1 59 3 10 9 10 26 26 5 7 2 7 1 60 1 13 3 7 5 2 6 1h39l10-2 4-4 2-7 1-189 3-9 6-7 8-4 9-1 10 3 7 7 3 6 1 5v218l-3 12-6 8-5 4-11 4h-162l-11-4-8-7-5-10-1-5v-222l3-8 5-6 8-4z"/>
<path transform="translate(1568,666)" d="m0 0h157l10 3 6 4 5 5 5 8 2 7v46l-4 8-5 5-7 4h-62l-7-4-7-8-2-6-1-18-3-6-4-3h-55l-5 4-2 6v157l3 7 5 3h96l10-2 2-11 1-13 3-7 4-5 8-4 3-1h10l10 4 7 8 2 6v44l-4 12-7 8-8 4-9 2h-156l-9-2-10-6-6-9-3-12v-209l3-12 5-8 8-6z"/>
<path transform="translate(1283,619)" d="m0 0h13l8 4 5 5 3 5 2 8 1 13 3 7 5 3 6 1 39 1 10 3 9 6 6 9 3 8v40l-4 10-6 8-7 5-10 3-40 1-9 2-3 2-2 7v104l3 10 5 3 5 1 46 1 9 2 9 6 4 6 1 4v8l-3 7-5 6-8 4-5 1h-82l-10-2-8-4-5-6-3-7-1-6-1-184-2-8-4-4-4-1-18-1-9-3-5-5-3-6-1-4v-8l3-8 7-8 5-2 17-1 10-3 3-6 1-5 1-15 3-8 8-7z"/>
<path transform="translate(1439,666)" d="m0 0h12l10 5 5 7 2 9 1 58 2 8 11 13 20 20 9 11 3 8v103l-4 11-7 8-8 4-9 2h-38l-13-4-8-7-4-7-2-8v-223l4-9 8-7z"/>
<path transform="translate(1439,570)" d="m0 0h10l7 3 7 6 4 8 1 4v7l-3 9-6 7-9 4h-11l-8-4-5-4-5-10v-12l4-9 8-7z"/>
</svg>
